HIERARCHY
ROOT Beta:Hips
{
	OFFSET 0.00 0.00 0.00
	CHANNELS 6 Xposition Yposition Zposition Yrotation Xrotation Zrotation
	JOINT Beta:Spine
	{
		OFFSET	0.0000	9.2263	1.5771
		CHANNELS 3 Xrotation Yrotation Zrotation
		JOINT Beta:Spine1
		{
			OFFSET	0.0000	16.2540	-0.1656
			CHANNELS 3 Xrotation Yrotation Zrotation
			JOINT Beta:Spine2
			{
				OFFSET	0.0000	13.6396	-1.2923
				CHANNELS 3 Xrotation Yrotation Zrotation
				JOINT Beta:Neck
				{
					OFFSET	0.0000	13.8774	-4.3542
					CHANNELS 3 Xrotation Yrotation Zrotation
					JOINT Beta:Neck1
					{
						OFFSET	0.0000	4.3400	0.9269
						CHANNELS 3 Xrotation Yrotation Zrotation
						JOINT Beta:Head
						{
							OFFSET	0.0000	4.0266	0.8585
							CHANNELS 3 Xrotation Yrotation Zrotation
							End Site
							{
								OFFSET 0.0000 23.0297 0.1231
							}
						}
					}
				}
				JOINT Beta:LeftShoulder
				{
					OFFSET	6.1442	10.1870	-3.7932
					CHANNELS 3 Zrotation Xrotation Yrotation
					JOINT Beta:LeftArm
					{
						OFFSET	12.3191	-1.1130	-1.7935
						CHANNELS 3 Zrotation Xrotation Yrotation
						JOINT Beta:LeftForeArm
						{
							OFFSET	27.6870	0.0000	0.0000
							CHANNELS 3 Xrotation Zrotation Yrotation
							JOINT Beta:LeftHand
							{
								OFFSET	27.8738	0.0000	0.0000
								CHANNELS 3 Zrotation Yrotation Xrotation
								JOINT Beta:LeftHandThumb1
								{
									OFFSET	2.3785	-1.0029	2.6209
									CHANNELS 3 Zrotation Xrotation Yrotation
									JOINT Beta:LeftHandThumb2
									{
										OFFSET	3.3624	-1.0029	2.8398
										CHANNELS 3 Zrotation Xrotation Yrotation
										JOINT Beta:LeftHandThumb3
										{
											OFFSET	4.5018	-1.3445	2.1783
											CHANNELS 3 Zrotation Xrotation Yrotation
											End Site
											{
												OFFSET 2.6000 -1.0000 1.0000
											}
										}
									}
								}
								JOINT Beta:LeftHandMiddle1
								{
									OFFSET	10.4639	0.6148	0.4298
									CHANNELS 3 Zrotation Xrotation Yrotation
									JOINT Beta:LeftHandMiddle2
									{
										OFFSET	5.7921	0.0000	0.0000
										CHANNELS 3 Zrotation Xrotation Yrotation
										JOINT Beta:LeftHandMiddle3
										{
											OFFSET	3.7132	0.0000	0.0000
											CHANNELS 3 Zrotation Xrotation Yrotation
											End Site
											{
												OFFSET 2.3000 0.0000 0.0000
											}
										}
									}
								}
								JOINT Beta:LeftHandIndex1
								{
									OFFSET	10.3945	0.6148	2.7055
									CHANNELS 3 Zrotation Xrotation Yrotation
									JOINT Beta:LeftHandIndex2
									{
										OFFSET	5.5493	0.0000	0.0000
										CHANNELS 3 Zrotation Xrotation Yrotation
										JOINT Beta:LeftHandIndex3
										{
											OFFSET	3.3911	0.0000	0.0000
											CHANNELS 3 Zrotation Xrotation Yrotation
											End Site
											{
												OFFSET 2.5000 0.0000 0.0000
											}
										}
									}
								}
								JOINT Beta:LeftHandRing1
								{
									OFFSET	10.3252	0.3211	-1.8755
									CHANNELS 3 Zrotation Xrotation Yrotation
									JOINT Beta:LeftHandRing2
									{
										OFFSET	5.4452	0.0000	0.0000
										CHANNELS 3 Zrotation Xrotation Yrotation
										JOINT Beta:LeftHandRing3
										{
											OFFSET	3.7132	0.0000	0.0000
											CHANNELS 3 Zrotation Xrotation Yrotation
											End Site
											{
												OFFSET 2.0000 0.0000 0.0000
											}
										}
									}
								}
								JOINT Beta:LeftHandPinky1
								{
									OFFSET	10.0130	-0.0783	-3.9671
									CHANNELS 3 Zrotation Xrotation Yrotation
									JOINT Beta:LeftHandPinky2
									{
										OFFSET	3.6763	0.0000	0.0000
										CHANNELS 3 Zrotation Xrotation Yrotation
										JOINT Beta:LeftHandPinky3
										{
											OFFSET	2.8113	0.0000	0.0000
											CHANNELS 3 Zrotation Xrotation Yrotation
											End Site
											{
												OFFSET 2.9000 0.0000 0.0000
											}
										}
									}
								}
							}
						}
					}
				}
				JOINT Beta:RightShoulder
				{
					OFFSET	-6.1402	10.1870	-3.7932
					CHANNELS 3 Zrotation Xrotation Yrotation
					JOINT Beta:RightArm
					{
						OFFSET	-12.3231	-1.1130	-1.7935
						CHANNELS 3 Zrotation Xrotation Yrotation
						JOINT Beta:RightForeArm
						{
							OFFSET	-27.6870	0.0000	0.0000
							CHANNELS 3 Xrotation Zrotation Yrotation
							JOINT Beta:RightHand
							{
								OFFSET	-27.8738	0.0000	0.0000
								CHANNELS 3 Zrotation Yrotation Xrotation
								JOINT Beta:RightHandThumb1
								{
									OFFSET	-2.5178	-0.9367	2.5137
									CHANNELS 3 Zrotation Xrotation Yrotation
									JOINT Beta:RightHandThumb2
									{
										OFFSET	-3.2638	-1.0870	2.9669
										CHANNELS 3 Zrotation Xrotation Yrotation
										JOINT Beta:RightHandThumb3
										{
											OFFSET	-4.4165	-1.3703	2.1350
											CHANNELS 3 Zrotation Xrotation Yrotation
											End Site
											{
												OFFSET -2.6000 -1.0000 1.0000
											}
										}
									}
								}
								JOINT Beta:RightHandIndex1
								{
									OFFSET	-10.4665	0.4896	2.7120
									CHANNELS 3 Zrotation Xrotation Yrotation
									JOINT Beta:RightHandIndex2
									{
										OFFSET	-5.3768	0.0000	0.0000
										CHANNELS 3 Zrotation Xrotation Yrotation
										JOINT Beta:RightHandIndex3
										{
											OFFSET	-3.3855	0.0000	0.0000
											CHANNELS 3 Zrotation Xrotation Yrotation
											End Site
											{
												OFFSET -2.6000 0.0000 0.0000
											}
										}
									}
								}
								JOINT Beta:RightHandMiddle1
								{
									OFFSET	-10.7596	0.4896	0.4278
									CHANNELS 3 Zrotation Xrotation Yrotation
									JOINT Beta:RightHandMiddle2
									{
										OFFSET	-5.6168	0.0000	0.0000
										CHANNELS 3 Zrotation Xrotation Yrotation
										JOINT Beta:RightHandMiddle3
										{
											OFFSET	-3.7364	0.0000	0.0000
											CHANNELS 3 Zrotation Xrotation Yrotation
											End Site
											{
												OFFSET -2.3000 0.0000 0.0000
											}
										}
									}
								}
								JOINT Beta:RightHandRing1
								{
									OFFSET	-10.4702	0.3879	-1.9363
									CHANNELS 3 Zrotation Xrotation Yrotation
									JOINT Beta:RightHandRing2
									{
										OFFSET	-5.4013	0.0000	0.0000
										CHANNELS 3 Zrotation Xrotation Yrotation
										JOINT Beta:RightHandRing3
										{
											OFFSET	-3.3916	0.0000	0.0000
											CHANNELS 3 Zrotation Xrotation Yrotation
											End Site
											{
												OFFSET -2.2000 0.0000 0.0000
											}
										}
									}
								}
								JOINT Beta:RightHandPinky1
								{
									OFFSET	-9.9715	-0.1191	-3.9540
									CHANNELS 3 Zrotation Xrotation Yrotation
									JOINT Beta:RightHandPinky2
									{
										OFFSET	-3.6528	0.0000	0.0000
										CHANNELS 3 Zrotation Xrotation Yrotation
										JOINT Beta:RightHandPinky3
										{
											OFFSET	-2.7820	0.0000	0.0000
											CHANNELS 3 Zrotation Xrotation Yrotation
											End Site
											{
												OFFSET -2.9000 0.0000 0.0000
											}
										}
									}
								}
							}
						}
					}
				}
			}
		}
	}
	JOINT Beta:LeftUpLeg
	{
		OFFSET	9.6338	-3.2733	0.0000
		CHANNELS 3 Xrotation Yrotation Zrotation
		JOINT Beta:LeftLeg
		{
			OFFSET	0.0000	-41.7300	-1.7300
			CHANNELS 3 Xrotation Yrotation Zrotation
			JOINT Beta:LeftFoot
			{
				OFFSET	0.0126	-39.1900	-0.8477
				CHANNELS 3 Xrotation Yrotation Zrotation
				JOINT Beta:LeftToeBase
				{
					OFFSET	-0.1833	-12.1931	8.2823
					CHANNELS 3 Xrotation Yrotation Zrotation
					End Site
					{
						OFFSET 0.0000 0.0000 10.1681
					}
				}
			}
		}
	}
	JOINT Beta:RightUpLeg
	{
		OFFSET	-9.6338	-3.2733	0.0000
		CHANNELS 3 Xrotation Yrotation Zrotation
		JOINT Beta:RightLeg
		{
			OFFSET	0.0000	-41.7300	-1.7300
			CHANNELS 3 Xrotation Yrotation Zrotation
			JOINT Beta:RightFoot
			{
				OFFSET	0.0126	-39.1900	-0.8477
				CHANNELS 3 Xrotation Yrotation Zrotation
				JOINT Beta:RightToeBase
				{
					OFFSET	-0.1833	-12.1931	8.2823
					CHANNELS 3 Xrotation Yrotation Zrotation
					End Site
					{
						OFFSET 0.0032 0.0000 10.1681
					}
				}
			}
		}
	}
}
MOTION
Frames: 9
Frame Time: 0.0333333
-0.0000 95.7681 0.0000 -5.2411 -3.7381 -3.0090 3.3079 1.5309 2.3242 1.1519 0.3395 1.5528 1.1260 0.3615 1.5559 5.6263 -0.0790 0.4547 -0.0000 0.0000 -0.0000 -7.5633 1.3757 -0.0806 -11.7848 4.6941 -16.8493 -69.8727 20.0976 -3.2887 -0.0000 0.0000 -1.4594 -8.5115 -3.9540 -26.8291 -1.2620 4.7859 8.5754 14.3745 8.6022 13.9491 -4.3898 -7.3978 1.1522 -12.5291 -0.0000 -1.3262 -17.4911 -0.0000 -0.0000 -18.5032 0.0000 -0.0000 -4.0791 0.4326 -4.0627 -17.4612 -0.0000 -0.0000 -8.0795 -0.0000 -0.0000 -18.0279 0.0000 -0.8904 -21.0119 0.0000 0.0000 -17.9526 0.0000 0.0000 -24.1385 -0.0457 0.5632 -17.4915 -0.0000 0.0000 -16.5876 0.0000 -0.0000 14.2263 5.0180 14.5673 61.3313 30.2135 2.5703 0.0000 0.0000 6.6937 9.6610 0.3539 -15.3862 1.2620 4.7859 -8.5754 -12.8165 8.9378 -16.2599 0.8031 -9.7624 4.0711 4.0790 0.4326 4.0627 17.4612 -0.0000 0.0000 8.0796 0.0000 0.0000 12.5291 -0.0000 1.3262 17.4911 -0.0000 0.0000 18.5032 0.0000 -0.0000 18.0279 -0.0000 0.8904 21.0119 -0.0000 0.0000 17.9526 -0.0000 -0.0000 24.1385 -0.0457 -0.5632 17.4915 -0.0000 -0.0000 16.5876 0.0000 0.0000 -11.2445 14.6549 10.3492 13.9613 2.0225 4.2069 0.0620 0.6161 -7.4841 -4.9285 0.0000 -0.0000 2.7224 -10.2896 3.6575 4.1430 -9.7126 -3.2744 -2.6283 -1.5845 2.8222 -7.2829 -0.0000 -0.0000 
0.0008 95.7688 0.0009 -5.2398 -3.7204 -3.0105 3.3046 1.5260 2.3222 1.1508 0.3375 1.5522 1.1249 0.3596 1.5553 5.6267 -0.0787 0.4556 -0.0000 0.0000 -0.0000 -7.5607 1.3758 -0.0824 -11.7780 4.6931 -16.8541 -69.8794 20.1078 -3.2805 0.0000 0.0000 -1.4565 -8.5146 -3.9486 -26.8271 -1.2620 4.7859 8.5754 14.3745 8.6022 13.9491 -4.3898 -7.3978 1.1522 -12.5291 -0.0000 -1.3262 -17.4911 -0.0000 -0.0000 -18.5032 -0.0000 -0.0000 -4.0790 0.4326 -4.0627 -17.4612 0.0000 -0.0000 -8.0795 -0.0000 0.0000 -18.0279 -0.0000 -0.8904 -21.0119 0.0000 -0.0000 -17.9526 -0.0000 -0.0000 -24.1385 -0.0457 0.5632 -17.4915 0.0000 -0.0000 -16.5876 -0.0000 -0.0000 14.2159 5.0166 14.5718 61.3269 30.2169 2.5699 -0.0000 0.0000 6.6898 9.6634 0.3526 -15.3780 1.2621 4.7859 -8.5754 -12.8165 8.9378 -16.2599 0.8031 -9.7624 4.0711 4.0790 0.4326 4.0628 17.4612 0.0000 0.0000 8.0795 -0.0000 -0.0000 12.5291 -0.0000 1.3262 17.4911 0.0000 0.0000 18.5032 -0.0000 -0.0000 18.0279 -0.0000 0.8904 21.0119 0.0000 -0.0000 17.9526 0.0000 -0.0000 24.1385 -0.0457 -0.5632 17.4915 -0.0000 -0.0000 16.5876 0.0000 -0.0000 -11.2635 14.6418 10.3484 13.9655 2.0276 4.2075 0.0658 0.6157 -7.4845 -4.9331 -0.0000 -0.0000 2.7155 -10.2860 3.6603 4.1207 -9.7117 -3.2745 -2.6141 -1.5867 2.8216 -7.2776 -0.0000 -0.0000 
0.0019 95.7699 0.0053 -5.2486 -3.7073 -3.0103 3.2961 1.5130 2.3167 1.1480 0.3323 1.5505 1.1221 0.3544 1.5537 5.6277 -0.0779 0.4582 -0.0000 0.0000 -0.0000 -7.5547 1.3759 -0.0868 -11.7599 4.6904 -16.8666 -69.8972 20.1345 -3.2588 -0.0000 0.0000 -1.4491 -8.5232 -3.9344 -26.8221 -1.2620 4.7859 8.5754 14.3745 8.6022 13.9491 -4.3898 -7.3978 1.1522 -12.5290 0.0000 -1.3262 -17.4911 0.0000 0.0000 -18.5032 0.0000 -0.0000 -4.0791 0.4326 -4.0628 -17.4612 0.0000 -0.0000 -8.0795 0.0000 0.0000 -18.0279 0.0000 -0.8904 -21.0119 0.0000 -0.0000 -17.9526 0.0000 0.0000 -24.1385 -0.0457 0.5632 -17.4915 0.0000 0.0000 -16.5876 -0.0000 0.0000 14.1890 5.0130 14.5828 61.3151 30.2259 2.5691 0.0000 -0.0000 6.6798 9.6697 0.3494 -15.3570 1.2621 4.7859 -8.5754 -12.8165 8.9378 -16.2599 0.8031 -9.7624 4.0711 4.0791 0.4326 4.0628 17.4612 0.0000 0.0000 8.0795 0.0000 -0.0000 12.5291 0.0000 1.3262 17.4911 -0.0000 0.0000 18.5032 0.0000 -0.0000 18.0279 -0.0000 0.8904 21.0119 0.0000 -0.0000 17.9526 0.0000 -0.0000 24.1385 -0.0457 -0.5632 17.4915 -0.0000 -0.0000 16.5876 -0.0000 0.0000 -11.2727 14.6342 10.3473 13.9676 2.0398 4.2067 0.0681 0.6151 -7.4828 -4.9408 -0.0000 -0.0000 2.7404 -10.2803 3.6672 4.0453 -9.7119 -3.2774 -2.5789 -1.5849 2.8191 -7.2693 -0.0000 -0.0000 
0.0036 95.7715 0.0123 -5.2612 -3.6974 -3.0087 3.2840 1.4945 2.3091 1.1439 0.3249 1.5482 1.1181 0.3470 1.5514 5.6290 -0.0768 0.4620 -0.0000 0.0000 -0.0000 -7.5473 1.3761 -0.0924 -11.7346 4.6866 -16.8835 -69.9225 20.1718 -3.2275 -0.0000 -0.0000 -1.4387 -8.5363 -3.9145 -26.8147 -1.2620 4.7859 8.5754 14.3745 8.6022 13.9491 -4.3898 -7.3978 1.1522 -12.5291 0.0000 -1.3262 -17.4911 0.0000 0.0000 -18.5032 0.0000 -0.0000 -4.0791 0.4326 -4.0628 -17.4612 0.0000 0.0000 -8.0796 0.0000 0.0000 -18.0279 0.0000 -0.8904 -21.0119 -0.0000 0.0000 -17.9526 -0.0000 -0.0000 -24.1385 -0.0457 0.5632 -17.4915 0.0000 -0.0000 -16.5876 -0.0000 -0.0000 14.1525 5.0081 14.5968 61.2977 30.2386 2.5685 -0.0000 -0.0000 6.6664 9.6781 0.3455 -15.3285 1.2621 4.7859 -8.5754 -12.8165 8.9378 -16.2599 0.8031 -9.7624 4.0711 4.0791 0.4326 4.0627 17.4612 0.0000 0.0000 8.0795 -0.0000 0.0000 12.5291 0.0000 1.3262 17.4911 0.0000 0.0000 18.5032 -0.0000 0.0000 18.0279 -0.0000 0.8904 21.0119 0.0000 -0.0000 17.9526 -0.0000 0.0000 24.1385 -0.0457 -0.5632 17.4915 -0.0000 -0.0000 16.5876 0.0000 -0.0000 -11.2711 14.6266 10.3425 13.9611 2.0583 4.2074 0.0716 0.6148 -7.4848 -4.9465 -0.0000 -0.0000 2.7547 -10.2818 3.6670 3.9998 -9.7117 -3.2762 -2.5552 -1.5734 2.8167 -7.2637 0.0000 0.0000 
0.0053 95.7736 0.0208 -5.2814 -3.6922 -3.0081 3.2701 1.4732 2.3002 1.1393 0.3164 1.5455 1.1135 0.3385 1.5487 5.6302 -0.0754 0.4664 -0.0000 0.0000 -0.0000 -7.5409 1.3761 -0.0976 -11.7058 4.6822 -16.9016 -69.9520 20.2136 -3.1907 0.0000 -0.0000 -1.4272 -8.5531 -3.8923 -26.8063 -1.2620 4.7859 8.5754 14.3745 8.6022 13.9491 -4.3898 -7.3978 1.1522 -12.5291 -0.0000 -1.3262 -17.4912 0.0000 -0.0000 -18.5032 -0.0000 -0.0000 -4.0791 0.4326 -4.0627 -17.4612 -0.0000 0.0000 -8.0795 0.0000 -0.0000 -18.0279 0.0000 -0.8904 -21.0119 0.0000 -0.0000 -17.9526 -0.0000 0.0000 -24.1385 -0.0457 0.5632 -17.4915 -0.0000 0.0000 -16.5876 -0.0000 0.0000 14.1129 5.0026 14.6100 61.2767 30.2532 2.5690 -0.0000 -0.0000 6.6525 9.6871 0.3423 -15.2976 1.2620 4.7859 -8.5754 -12.8165 8.9378 -16.2599 0.8031 -9.7624 4.0711 4.0791 0.4326 4.0628 17.4612 0.0000 -0.0000 8.0795 0.0000 -0.0000 12.5291 0.0000 1.3262 17.4911 -0.0000 0.0000 18.5032 0.0000 -0.0000 18.0279 0.0000 0.8904 21.0119 0.0000 -0.0000 17.9526 0.0000 0.0000 24.1385 -0.0457 -0.5632 17.4915 0.0000 0.0000 16.5876 0.0000 0.0000 -11.2588 14.6228 10.3392 13.9475 2.0797 4.2088 0.0741 0.6153 -7.4929 -4.9451 -0.0000 0.0000 2.7769 -10.2858 3.6659 3.9481 -9.7108 -3.2726 -2.5238 -1.5484 2.8148 -7.2615 -0.0000 -0.0000 
0.0066 95.7757 0.0298 -5.3146 -3.6898 -3.0078 3.2561 1.4516 2.2912 1.1348 0.3077 1.5427 1.1089 0.3298 1.5460 5.6312 -0.0738 0.4711 -0.0000 0.0000 -0.0000 -7.5379 1.3760 -0.1009 -11.6773 4.6778 -16.9179 -69.9823 20.2540 -3.1525 -0.0000 -0.0000 -1.4163 -8.5724 -3.8706 -26.7977 -1.2621 4.7859 8.5754 14.3745 8.6022 13.9491 -4.3898 -7.3978 1.1522 -12.5290 -0.0000 -1.3262 -17.4911 0.0000 0.0000 -18.5032 0.0000 0.0000 -4.0791 0.4326 -4.0628 -17.4612 -0.0000 0.0000 -8.0795 0.0000 -0.0000 -18.0279 -0.0000 -0.8904 -21.0119 0.0000 0.0000 -17.9526 0.0000 -0.0000 -24.1385 -0.0457 0.5632 -17.4915 0.0000 0.0000 -16.5876 0.0000 0.0000 14.0769 4.9973 14.6187 61.2541 30.2678 2.5710 0.0000 0.0000 6.6406 9.6951 0.3410 -15.2697 1.2621 4.7859 -8.5754 -12.8165 8.9378 -16.2599 0.8031 -9.7624 4.0711 4.0791 0.4326 4.0627 17.4612 0.0000 -0.0000 8.0796 0.0000 0.0000 12.5291 0.0000 1.3262 17.4911 -0.0000 0.0000 18.5032 -0.0000 0.0000 18.0279 -0.0000 0.8904 21.0119 -0.0000 -0.0000 17.9526 0.0000 0.0000 24.1385 -0.0457 -0.5632 17.4915 -0.0000 0.0000 16.5876 -0.0000 -0.0000 -11.2405 14.6268 10.3399 13.9307 2.1108 4.2076 0.0730 0.6164 -7.5027 -4.9391 -0.0000 -0.0000 2.8274 -10.2855 3.6705 3.8429 -9.7106 -3.2710 -2.4692 -1.5146 2.8146 -7.2573 -0.0000 0.0000 
0.0077 95.7773 0.0384 -5.3575 -3.6852 -3.0070 3.2438 1.4323 2.2832 1.1308 0.2999 1.5402 1.1049 0.3220 1.5435 5.6316 -0.0723 0.4756 -0.0000 0.0000 -0.0000 -7.5404 1.3756 -0.1008 -11.6531 4.6738 -16.9291 -70.0100 20.2870 -3.1169 -0.0000 -0.0000 -1.4075 -8.5934 -3.8529 -26.7899 -1.2620 4.7859 8.5754 14.3745 8.6022 13.9491 -4.3898 -7.3978 1.1522 -12.5291 0.0000 -1.3262 -17.4911 0.0000 -0.0000 -18.5032 0.0000 0.0000 -4.0791 0.4326 -4.0627 -17.4612 -0.0000 -0.0000 -8.0795 0.0000 0.0000 -18.0279 0.0000 -0.8904 -21.0119 -0.0000 0.0000 -17.9526 0.0000 -0.0000 -24.1385 -0.0457 0.5632 -17.4915 0.0000 -0.0000 -16.5876 -0.0000 0.0000 14.0513 4.9931 14.6194 61.2317 30.2805 2.5754 -0.0000 0.0000 6.6335 9.7003 0.3427 -15.2500 1.2621 4.7859 -8.5754 -12.8165 8.9378 -16.2599 0.8031 -9.7624 4.0711 4.0791 0.4326 4.0627 17.4612 -0.0000 -0.0000 8.0795 0.0000 0.0000 12.5291 0.0000 1.3262 17.4911 0.0000 -0.0000 18.5032 -0.0000 -0.0000 18.0279 -0.0000 0.8904 21.0119 0.0000 0.0000 17.9526 -0.0000 -0.0000 24.1385 -0.0457 -0.5632 17.4915 -0.0000 0.0000 16.5876 -0.0000 -0.0000 -11.2244 14.6342 10.3418 13.9162 2.1554 4.2041 0.0666 0.6175 -7.5086 -4.9319 0.0000 -0.0000 2.8919 -10.2823 3.6784 3.7029 -9.7111 -3.2707 -2.4038 -1.4765 2.8143 -7.2487 -0.0000 0.0000 
0.0090 95.7781 0.0464 -5.4013 -3.6786 -3.0067 3.2334 1.4137 2.2764 1.1277 0.2923 1.5379 1.1018 0.3144 1.5413 5.6293 -0.0705 0.4794 -0.0000 0.0000 -0.0000 -7.5550 1.3717 -0.0922 -11.6350 4.6705 -16.9312 -70.0371 20.3119 -3.0796 -0.0000 0.0000 -1.4016 -8.6222 -3.8405 -26.7845 -1.2621 4.7859 8.5754 14.3745 8.6022 13.9491 -4.3898 -7.3978 1.1522 -12.5291 -0.0000 -1.3262 -17.4911 -0.0000 0.0000 -18.5032 0.0000 0.0000 -4.0791 0.4326 -4.0628 -17.4612 0.0000 -0.0000 -8.0795 0.0000 -0.0000 -18.0279 0.0000 -0.8904 -21.0119 0.0000 0.0000 -17.9526 0.0000 0.0000 -24.1385 -0.0457 0.5632 -17.4915 0.0000 -0.0000 -16.5876 0.0000 0.0000 14.0454 4.9906 14.6006 61.2036 30.2944 2.5870 0.0000 -0.0000 6.6356 9.6997 0.3506 -15.2463 1.2621 4.7859 -8.5754 -12.8165 8.9379 -16.2599 0.8031 -9.7624 4.0711 4.0791 0.4326 4.0627 17.4612 0.0000 -0.0000 8.0795 0.0000 -0.0000 12.5291 0.0000 1.3262 17.4911 0.0000 0.0000 18.5032 0.0000 -0.0000 18.0279 0.0000 0.8904 21.0119 -0.0000 0.0000 17.9526 0.0000 -0.0000 24.1385 -0.0457 -0.5632 17.4915 0.0000 -0.0000 16.5876 0.0000 0.0000 -11.2168 14.6384 10.3435 13.9141 2.2054 4.2026 0.0542 0.6188 -7.5105 -4.9245 -0.0000 -0.0000 2.9168 -10.2797 3.6799 3.6384 -9.7106 -3.2695 -2.3760 -1.4358 2.8145 -7.2405 0.0000 0.0000 
0.0100 95.7782 0.0545 -5.4430 -3.6754 -3.0081 3.2265 1.3945 2.2716 1.1258 0.2844 1.5363 1.0999 0.3065 1.5396 5.6226 -0.0704 0.4794 -0.0000 0.0000 -0.0000 -7.5580 1.3542 -0.0823 -11.6237 4.6687 -16.9361 -70.0615 20.3443 -3.0420 -0.0000 0.0000 -1.3944 -8.6470 -3.8284 -26.7877 -1.2621 4.7859 8.5754 14.3745 8.6022 13.9491 -4.3898 -7.3978 1.1522 -12.5290 0.0000 -1.3262 -17.4911 -0.0000 0.0000 -18.5032 -0.0000 -0.0000 -4.0790 0.4326 -4.0628 -17.4612 0.0000 0.0000 -8.0795 0.0000 0.0000 -18.0279 0.0000 -0.8904 -21.0119 -0.0000 -0.0000 -17.9526 -0.0000 -0.0000 -24.1385 -0.0457 0.5632 -17.4915 0.0000 -0.0000 -16.5876 -0.0000 0.0000 14.0425 4.9883 14.5789 61.1754 30.3185 2.6006 0.0000 -0.0000 6.6368 9.6977 0.3503 -15.2432 1.2621 4.7859 -8.5754 -12.8165 8.9378 -16.2599 0.8031 -9.7624 4.0711 4.0791 0.4326 4.0628 17.4612 -0.0000 0.0000 8.0795 0.0000 -0.0000 12.5291 0.0000 1.3262 17.4911 0.0000 -0.0000 18.5032 -0.0000 0.0000 18.0279 0.0000 0.8904 21.0119 -0.0000 -0.0000 17.9526 0.0000 -0.0000 24.1385 -0.0457 -0.5632 17.4915 0.0000 -0.0000 16.5876 -0.0000 0.0000 -11.2162 14.6407 10.3482 13.9300 2.2520 4.2039 0.0388 0.6202 -7.5120 -4.9215 0.0000 0.0000 2.9087 -10.2765 3.6764 3.6481 -9.7101 -3.2683 -2.3793 -1.3929 2.8184 -7.2377 0.0000 0.0000 
